<?xml version="1.0" standalone="no"?>
<!DOCTYPE svg PUBLIC "-//W3C//DTD SVG 20010904//EN"
 "http://www.w3.org/TR/2001/REC-SVG-20010904/DTD/svg10.dtd">
<svg version="1.0" xmlns="http://www.w3.org/2000/svg"
 width="136.000000pt" height="136.000000pt" viewBox="0 0 136.000000 136.000000"
 preserveAspectRatio="xMidYMid meet">
<metadata>
Created by potrace 1.11, written by Peter Selinger 2001-2013
</metadata>
<g transform="translate(0.000000,136.000000) scale(0.100000,-0.100000)"
fill="#000000" stroke="none">
<path d="M245 1205 c-32 -13 -61 -28 -64 -33 -3 -5 -14 -12 -24 -15 -11 -4
-21 -16 -24 -27 -3 -11 -8 -18 -12 -16 -3 2 -12 -2 -19 -10 -7 -8 -10 -14 -6
-14 4 0 0 -8 -9 -17 -8 -10 -17 -25 -19 -33 -2 -8 -6 -17 -10 -20 -18 -14 -34
-190 -17 -190 5 0 8 -3 7 -7 -4 -17 14 -73 23 -73 6 0 8 -4 5 -9 -3 -4 2 -18
12 -29 9 -11 24 -30 32 -41 8 -12 20 -21 28 -21 7 0 11 -3 9 -7 -3 -5 61 -73
140 -153 80 -80 142 -139 138 -131 -5 9 -4 12 3 7 7 -4 12 -11 12 -17 0 -5 16
-26 36 -46 20 -21 33 -32 29 -24 -5 9 -4 12 3 7 7 -4 12 -12 12 -18 0 -13 86
-98 99 -98 5 0 13 -5 17 -12 5 -7 2 -8 -7 -3 -8 4 -2 -5 13 -21 l27 -28 38 39
c21 22 37 43 36 47 -2 4 3 8 10 8 14 0 233 221 230 232 -2 4 2 8 8 8 10 0 234
219 234 230 0 3 12 17 25 31 33 36 63 122 65 188 2 47 -4 74 -31 154 -4 9 -10
17 -15 17 -5 0 -8 3 -7 8 5 14 -53 79 -87 98 -19 10 -35 22 -35 27 0 4 -4 5
-10 2 -5 -3 -10 -2 -10 2 0 29 -203 39 -250 13 -14 -8 -28 -13 -32 -12 -5 1
-8 -3 -8 -9 0 -5 -4 -8 -9 -5 -5 3 -22 -5 -38 -19 -66 -57 -87 -77 -74 -70 9
6 12 4 7 -3 -4 -7 -13 -12 -21 -12 -7 0 -15 -5 -17 -11 -4 -12 -38 -1 -38 13
0 14 -53 68 -66 68 -7 0 -15 7 -18 16 -3 8 -10 12 -16 9 -5 -3 -10 -2 -10 2 0
8 -41 27 -90 41 -8 3 -44 6 -80 8 -51 2 -79 -3 -125 -21z m70 -715 c10 -11 16
-20 13 -20 -3 0 -13 9 -23 20 -10 11 -16 20 -13 20 3 0 13 -9 23 -20z m66 -67
c13 -16 12 -17 -3 -4 -17 13 -22 21 -14 21 2 0 10 -8 17 -17z"/>
</g>
</svg>
